<mxfile host="app.diagrams.net" modified="2023-05-03T12:24:41.467Z" agent="Mozilla/5.0 (iPad; CPU OS 15_5 like Mac OS X) AppleWebKit/605.1.15 (KHTML, like Gecko) CriOS/104.0.5112.71 Mobile/15E148 Safari/604.1" version="21.2.7" etag="ekA10uUQCU4UwxFchOxG" type="github">
  <diagram name="第 1 页" id="5PVilAH5EiieLeYM9as1">
    <mxGraphModel>
      <root>
        <mxCell id="0" />
        <mxCell id="1" parent="0" />
      </root>
    </mxGraphModel>
  </diagram>
</mxfile>
